<?xml version="1.0" standalone="no"?>
<!DOCTYPE svg PUBLIC "-//W3C//DTD SVG 20010904//EN"
 "http://www.w3.org/TR/2001/REC-SVG-20010904/DTD/svg10.dtd">
<svg version="1.0" xmlns="http://www.w3.org/2000/svg"
 width="423.000000pt" height="258.000000pt" viewBox="0 0 423.000000 258.000000"
 preserveAspectRatio="xMidYMid meet">
<g transform="translate(0.000000,258.000000) scale(0.040000,-0.040000)"
fill="#000000" stroke="none">
<path d="M0 3225 l0 -3225 5288 0 5287 0 0 3225 0 3225 -5287 0 -5288 0 0
-3225z m5002 2570 c27 -50 32 -51 60 -12 39 53 62 53 102 -1 30 -41 34 -41 83
3 30 27 68 39 93 30 39 -15 39 -19 -3 -50 -28 -20 -39 -49 -29 -75 19 -49 67
-31 67 24 0 20 16 36 35 36 54 0 290 -124 290 -153 0 -13 42 -42 94 -64 51
-21 118 -66 148 -98 31 -33 75 -60 99 -60 63 0 158 -98 140 -144 -9 -24 -4
-33 12 -23 14 9 81 -40 147 -108 67 -69 142 -125 167 -125 25 0 106 -62 179
-137 74 -76 156 -138 182 -138 26 0 90 -44 142 -97 94 -96 94 -98 38 -116 -55
-18 -56 -20 -10 -53 25 -19 70 -34 98 -35 28 0 73 -17 100 -37 27 -20 67 -37
91 -37 60 0 298 -270 298 -340 0 -75 49 -104 88 -51 46 63 67 53 231 -115 216
-221 243 -244 285 -244 21 0 64 -28 96 -62 32 -35 46 -63 29 -63 -16 0 -29
-18 -29 -40 0 -30 15 -37 61 -25 34 8 68 4 76 -10 9 -14 35 -25 58 -25 22 0
105 -68 184 -150 78 -83 159 -150 180 -150 70 0 215 -161 199 -221 -8 -31 -2
-54 14 -54 15 0 28 11 28 25 0 14 23 25 50 25 57 0 64 -26 20 -70 -50 -50 17
-100 80 -61 67 42 83 39 64 -11 -10 -27 11 -69 62 -122 49 -50 68 -87 51 -97
-15 -9 -27 -33 -27 -53 0 -44 91 -48 107 -5 6 17 20 23 30 14 11 -10 5 -53
-12 -95 -28 -67 -26 -81 12 -109 53 -39 19 -180 -61 -252 -25 -24 -53 -70 -62
-103 -11 -45 -32 -61 -78 -61 -48 0 -70 -18 -90 -75 -21 -62 -33 -70 -72 -50
-61 33 -97 -21 -41 -62 57 -42 -41 -133 -141 -132 -40 0 -90 -18 -112 -40 -36
-37 -43 -37 -84 0 -24 22 -76 40 -114 40 -38 0 -86 14 -107 31 -21 18 -63 40
-94 49 -70 22 -74 105 -6 126 61 20 65 52 8 74 -26 10 -51 1 -64 -22 -37 -66
-165 -47 -248 36 -41 41 -92 75 -113 75 -20 0 -87 51 -147 113 -60 61 -132
112 -159 112 -28 0 -61 20 -74 45 -13 24 -53 60 -89 79 -35 19 -64 50 -64 68
0 19 -33 41 -74 49 -99 20 -143 71 -102 120 62 75 -29 117 -125 58 -44 -28
-60 -21 -134 61 -47 51 -125 109 -175 130 -49 21 -90 49 -90 63 0 15 -25 24
-55 20 -37 -3 -59 10 -65 41 -18 85 -106 152 -158 120 -39 -24 -55 -17 -101
46 -31 41 -69 75 -85 75 -44 0 -117 -122 -121 -203 -2 -39 -25 -86 -50 -105
-28 -20 -40 -47 -29 -65 12 -18 -2 -51 -33 -80 -72 -67 -69 -77 65 -211 65
-65 118 -141 119 -170 0 -39 21 -56 76 -66 53 -9 77 -29 82 -69 9 -57 -29 -77
-57 -31 -9 14 -44 25 -79 25 -77 0 -67 -59 12 -70 30 -5 54 -20 54 -34 0 -37
106 -119 155 -120 53 -1 67 -55 58 -226 -9 -173 -7 -168 -47 -113 -32 44 -91
35 -91 -13 0 -13 -23 -47 -52 -76 -50 -50 -50 -54 -9 -100 42 -46 41 -48 -25
-48 -46 0 -73 -15 -81 -47 -7 -27 -43 -54 -83 -62 -72 -14 -86 -26 -176 -146
-70 -94 -226 -90 -250 5 -11 45 -30 61 -68 57 -34 -4 -59 12 -69 44 -18 57
-112 67 -112 12 0 -43 -5 -44 -60 -23 -22 9 -40 31 -40 50 0 19 -22 35 -49 35
-26 0 -55 11 -63 25 -9 14 -33 25 -54 25 -21 0 -72 34 -113 75 -41 41 -96 75
-122 75 -26 0 -60 23 -75 52 -18 33 -42 46 -68 37 -26 -11 -75 22 -147 98 -58
62 -125 113 -147 113 -23 0 -75 34 -116 75 -41 41 -96 75 -122 75 -26 0 -58
21 -72 47 -14 25 -68 67 -120 91 -52 25 -107 62 -122 82 -15 21 -41 29 -57 20
-17 -11 -77 28 -147 98 -65 64 -152 149 -193 189 -48 46 -102 73 -146 73 -45
0 -98 27 -146 75 -41 41 -96 75 -122 75 -26 0 -58 21 -72 47 -14 25 -68 67
-120 91 -52 24 -119 71 -150 103 -30 33 -76 59 -102 59 -25 0 -85 44 -132 97
-47 54 -128 115 -179 137 -52 21 -94 50 -94 64 0 25 -244 152 -292 152 -14 0
-65 42 -113 94 -127 135 -194 187 -307 240 -55 26 -117 57 -138 69 -104 61
-180 75 -375 68 -205 -8 -215 -5 -283 63 -63 64 -74 68 -112 33 -39 -34 -50
-30 -129 48 -67 66 -79 92 -56 115 47 47 35 95 -22 95 -84 0 -223 190 -223
306 0 25 -17 52 -37 60 -30 11 -38 65 -38 263 l0 249 138 136 c75 74 137 152
137 173 0 44 174 238 213 238 25 0 159 64 237 112 21 13 108 27 193 30 136 5
160 -1 184 -45 22 -42 43 -49 111 -36 69 13 89 6 112 -36 19 -36 43 -48 75
-37 31 9 56 -2 73 -34 41 -77 174 -121 340 -113 82 4 170 7 194 8 25 1 90 48
145 107 l101 105 313 1 c278 1 316 -4 338 -44 16 -30 40 -40 71 -30 32 10 56
-2 75 -38 19 -36 43 -48 75 -37 32 10 56 -2 75 -38 19 -36 43 -48 75 -37 32
10 56 -2 75 -39 18 -33 43 -47 68 -38 23 9 59 -5 84 -32 36 -39 67 -46 163
-35 107 12 134 30 297 198 125 130 191 180 219 170 26 -10 50 3 68 36 15 29
46 52 69 52 22 0 60 17 83 38 38 35 49 31 121 -42 62 -65 85 -74 109 -50 25
25 19 41 -28 77 -46 34 -52 49 -25 59 66 26 95 18 124 -37z"/>
<path d="M4919 5248 c-25 -14 -56 -19 -69 -10 -29 17 -256 -100 -312 -162 -49
-55 -96 -399 -69 -506 25 -96 172 -165 290 -136 83 21 166 150 166 258 0 44
10 86 22 94 40 24 174 -38 214 -100 22 -34 56 -61 76 -61 19 0 87 -45 151
-100 64 -56 146 -116 183 -135 37 -19 88 -59 114 -87 26 -29 61 -53 77 -53 16
0 81 -50 144 -110 63 -61 137 -117 165 -126 27 -9 92 -49 143 -90 51 -41 108
-74 126 -74 17 0 48 -23 68 -51 20 -28 105 -96 189 -151 84 -55 153 -109 153
-121 0 -12 25 -28 56 -36 31 -8 102 -58 157 -112 55 -53 122 -104 150 -113 27
-9 95 -56 150 -106 55 -49 142 -111 193 -138 52 -26 94 -58 94 -70 0 -11 68
-64 150 -117 83 -52 150 -104 150 -114 0 -10 49 -48 109 -83 60 -35 130 -87
156 -115 25 -29 82 -67 126 -85 44 -19 110 -68 147 -109 37 -42 113 -108 169
-146 56 -39 147 -113 203 -164 55 -52 124 -94 154 -94 76 0 186 110 186 185 0
72 -48 190 -78 190 -11 0 -59 34 -106 75 -47 41 -101 75 -121 75 -20 0 -68 34
-108 75 -39 41 -83 75 -98 75 -15 1 -105 68 -201 150 -97 82 -187 149 -202
150 -14 0 -70 46 -125 102 -54 56 -130 119 -169 139 -39 21 -138 99 -219 173
-81 75 -157 136 -169 136 -12 0 -110 79 -218 175 -108 96 -205 175 -216 175
-11 0 -41 20 -66 44 -220 207 -364 331 -384 331 -14 0 -92 65 -174 144 -83 79
-197 173 -255 209 -58 36 -155 118 -217 183 -61 65 -168 159 -236 209 -69 49
-176 139 -238 198 -62 59 -132 107 -155 107 -23 0 -49 11 -57 25 -21 33 -313
31 -369 -2z"/>
<path d="M1009 5150 c-99 -40 -166 -165 -150 -282 8 -58 18 -169 21 -248 9
-180 103 -295 241 -295 134 0 222 140 175 277 -22 62 -21 83 7 100 57 37 70
28 128 -90 33 -69 76 -119 109 -127 30 -8 86 -47 124 -87 39 -40 87 -73 108
-73 21 0 69 -30 106 -66 38 -36 91 -78 118 -93 115 -66 397 -267 440 -314 26
-29 61 -52 80 -52 18 0 71 -34 118 -75 47 -41 97 -75 112 -75 15 0 66 -34 113
-75 47 -41 96 -75 110 -75 13 0 62 -34 109 -75 46 -41 99 -74 118 -75 18 0 66
-33 106 -73 40 -40 115 -99 166 -130 52 -32 106 -67 120 -79 26 -22 439 -297
568 -378 41 -27 104 -75 138 -107 35 -32 78 -58 95 -58 18 0 47 -14 65 -31 19
-18 129 -93 246 -169 117 -75 218 -143 225 -151 7 -8 58 -41 113 -74 55 -33
105 -67 112 -75 7 -8 52 -39 100 -69 49 -29 115 -82 149 -117 33 -35 80 -64
105 -64 25 0 76 -34 112 -75 37 -41 82 -75 100 -75 18 0 71 -34 118 -75 171
-150 405 -57 342 136 -17 49 -44 89 -62 89 -17 0 -78 34 -135 75 -57 41 -111
75 -120 75 -27 0 -346 216 -381 259 -19 23 -49 41 -68 41 -18 0 -72 34 -119
75 -47 41 -97 75 -112 75 -15 0 -66 34 -113 75 -47 41 -96 75 -110 75 -14 0
-87 51 -162 113 -75 61 -147 112 -161 112 -13 0 -56 34 -95 75 -40 41 -86 75
-103 75 -17 0 -67 30 -111 67 -44 37 -111 85 -149 106 -97 56 -263 175 -374
271 -52 44 -107 81 -123 81 -15 0 -70 38 -122 84 -51 46 -127 102 -168 123
-42 21 -103 67 -136 103 -33 36 -74 65 -91 65 -17 0 -92 51 -167 113 -75 61
-148 112 -161 112 -13 0 -52 29 -85 65 -33 36 -83 75 -110 88 -86 38 -146 81
-268 191 -65 58 -127 106 -138 106 -11 0 -91 68 -178 150 -87 83 -172 150
-189 150 -16 0 -74 45 -127 100 -191 195 -571 339 -729 275z"/>
<path d="M2683 5114 c-102 -45 -146 -115 -196 -309 -45 -176 -35 -237 58 -336
119 -127 257 -75 290 110 26 144 73 165 177 80 49 -39 125 -101 169 -137 45
-36 149 -101 231 -145 82 -43 155 -88 162 -100 7 -11 61 -45 120 -74 58 -30
106 -63 106 -74 0 -10 51 -44 113 -74 61 -30 112 -66 112 -79 0 -14 62 -61
138 -103 75 -43 146 -91 156 -107 10 -16 83 -72 162 -125 79 -54 144 -107 144
-119 0 -11 42 -43 94 -69 51 -26 124 -76 161 -110 36 -34 135 -115 217 -179
83 -63 216 -183 295 -265 182 -188 291 -198 379 -32 71 133 -57 312 -290 406
-44 18 -81 41 -81 52 0 10 -48 50 -106 89 -59 38 -168 128 -244 199 -76 72
-185 160 -242 195 -58 36 -161 114 -230 173 -172 146 -363 293 -487 375 -57
38 -129 97 -159 132 -31 35 -99 88 -152 119 -202 116 -265 158 -343 224 -45
38 -93 69 -107 69 -14 0 -72 39 -130 88 -58 48 -135 94 -171 101 -37 8 -92 25
-124 38 -77 31 -127 28 -222 -13z"/>
<path d="M716 4062 c-9 -23 1 -45 23 -54 49 -18 71 4 52 53 -19 50 -56 50 -75
1z"/>
</g>
</svg>
